- 
http://www.Speed.Cd 
       
http://www.Speed.Cd      fast  and The Hottest Private Tracker on the net

(((--Submit for invite!!--)))

Please Seed back to make the speed Faster!!!

------------------nfo--------------------------
-








































          
          
              
              
                    
                    
                    
                    

The.Change.Up.2011.CAM.Xvid.AC3-SiC

Poster:
[img]http://img809.imageshack.us/img809/2456/thechangeupposter.jpg[/img]

IMDB Link:
http://www.imdb.com/title/tt1488555/

Description:
A comedy in which a married father accidentally switches bodies with his best
friend, leading to a series of wildly complex difficulties 

MediaInfo:
General
Complete name                    : The.Change.Up.2011.CAM.Xvid.AC3-SiC.avi
Format                           : AVI
Format/Info                      : Audio Video Interleave
File size                        : 1.09 GiB
Duration                         : 1h 46mn
Overall bit rate                 : 1 465 Kbps

Video
ID                               : 0
Format                           : MPEG-4 Visual
Format profile                   : Advanced Simple@L5
Format settings, BVOP            : Yes
Format settings, QPel            : No
Format settings, GMC             : No warppoints
Format settings, Matrix          : Default (H.263)
Muxing mode                      : Packed bitstream
Codec ID                         : XVID
Codec ID/Hint                    : XviD
Duration                         : 1h 46mn
Bit rate                         : 1 328 Kbps
Width                            : 640 pixels
Height                           : 304 pixels
Display aspect ratio             : 2.2:1
Frame rate                       : 29.000 fps
Resolution                       : 8 bits
Colorimetry                      : 4:2:0
Scan type                        : Progressive
Bits/(Pixel*Frame)               : 0.235
Stream size                      : 1 016 MiB (91%)
Writing library                  : XviD 64

Audio
ID                               : 1
Format                           : AC-3
Format/Info                      : Audio Coding 3
Format_Settings_ModeExtension    : CM (complete main)
Codec ID                         : 2000
Duration                         : 1h 46mn
Bit rate mode                    : Constant
Bit rate                         : 128 Kbps
Channel(s)                       : 2 channels
Channel positions                : Front: L R
Sampling rate                    : 48.0 KHz
Stream size                      : 97.9 MiB (9%)
Alignment                        : Aligned on interleaves
Interleave, duration             : 64 ms (1.86 video frames)
Interleave, preload duration     : 192 ms
Title                            : 2ch English

Screenshots:
[img]http://img713.imageshack.us/img713/9670/avspmuxed1avisnapshot00.png[/img]
[img]http://img143.imageshack.us/img143/6555/thechangeup2011camxvida.png[/img]
[img]http://img818.imageshack.us/img818/6555/thechangeup2011camxvida.png[/img]
[img]http://img14.imageshack.us/img14/6555/thechangeup2011camxvida.png[/img]
[img]http://img703.imageshack.us/img703/6555/thechangeup2011camxvida.png[/img]
[img]http://img600.imageshack.us/img600/6555/thechangeup2011camxvida.png[/img]
[img]http://img59.imageshack.us/img59/6555/thechangeup2011camxvida.png[/img]
[img]http://img508.imageshack.us/img508/9246/vlcsnap2011081406h01m28.png[/img]

Note :   N/A 

Source : video and audio ERDNA Thanks!!!

Encoder: Bezauk

Enjoy!

Respects to CaptainHomey, Cyanide, CM8, Rx, THC, ELEKTRI4KA, 
Killerhz, PA, YeFsTe, BoxSlots, MrRep and everyone in the struggle...